<svg xmlns="http://www.w3.org/2000/svg" viewBox="0 0 52.5 39.62"><defs><style>.cls-1{fill:none;stroke:#000;stroke-miterlimit:10;}</style></defs><g id="Layer_2" data-name="Layer 2"><g id="Layer_2-2" data-name="Layer 2"><circle class="cls-1" cx="41.5" cy="27.12" r="10.5"/><polyline class="cls-1" points="36 27.62 41 31.62 48 23.62"/><rect x="12" y="16.62" width="4.5" height="4"/><rect x="5" y="22.62" width="4.5" height="4"/><rect x="12" y="22.62" width="4.5" height="4"/><rect x="19" y="22.62" width="4.5" height="4"/><rect x="5" y="29.62" width="4.5" height="4"/><rect x="12" y="29.62" width="4.5" height="4"/><rect x="19" y="29.62" width="4.5" height="4"/><rect x="19" y="16.62" width="4.5" height="4"/><rect x="26" y="16.62" width="4.5" height="4"/><path d="M29.8,22.62s-.76,1-.78,4H26v-4h4.5"/><line class="cls-1" x1="11" y1="6.12" x2="32" y2="6.12"/><path class="cls-1" d="M36.45,6.12h2.06C40.16,6.12,42,7,42,8.62v6H3v21H33s1,2,5.51,3.5h-35a3,3,0,0,1-3-3v-27a3,3,0,0,1,3-3H6.07"/><rect class="cls-1" x="32.63" y="0.5" width="2.87" height="10.93" rx="1.44"/><rect class="cls-1" x="7.11" y="0.66" width="2.87" height="10.93" rx="1.44"/><path d="M26,29.62h3.35a4.73,4.73,0,0,0,.51,1.12v2.88H26"/></g></g></svg>