<svg xmlns="http://www.w3.org/2000/svg" viewBox="0 0 86.75 86.75"><defs><style>.cls-1,.cls-2{fill:none;stroke:#000;stroke-miterlimit:10;}.cls-1{stroke-width:3px;}.cls-2{stroke-width:2px;}.cls-3{fill:#fff;}</style></defs><g id="Layer_2" data-name="Layer 2"><g id="Layer_2-2" data-name="Layer 2"><circle class="cls-1" cx="43.37" cy="43.37" r="41.87"/><path d="M45.26,44.77a2.56,2.56,0,0,1-3.63,0h0a2.57,2.57,0,0,1,0-3.64L65,21Z"/><line class="cls-2" x1="42.32" y1="3.02" x2="42.32" y2="8.83"/><line class="cls-2" x1="43.37" y1="78.78" x2="43.37" y2="85.25"/><line class="cls-2" x1="77.01" y1="39.64" x2="83.58" y2="39.64"/><line class="cls-2" x1="2.85" y1="39.64" x2="8.98" y2="39.64"/><path d="M44.88,41.68a1.76,1.76,0,0,1,.5,2.43h0a1.76,1.76,0,0,1-2.44.5l-16.58-13Z"/><circle class="cls-3" cx="43.37" cy="42.82" r="1.16"/></g></g></svg>