<svg xmlns="http://www.w3.org/2000/svg" viewBox="0 0 82.92 67.74"><defs><style>.cls-1,.cls-2{fill:none;stroke:#000;stroke-miterlimit:10;}.cls-1{stroke-width:0.5px;}.cls-2{stroke-width:3px;}</style></defs><g id="Layer_2" data-name="Layer 2"><g id="Layer_2-2" data-name="Layer 2"><ellipse class="cls-1" cx="42.29" cy="7.25" rx="5.9" ry="5.68"/><path class="cls-1" d="M31.8,36.9s9.19-1.42,15.72,0L48.19,22l3.69,4.83s2.28,1.8,3.51-.86l2.37-11.27L69.22,9.52s5.78,2.27,10.7-.76c0,0,2-1.42,1.62-2.93S80.3,1.56,78.5.52s-5.11,1.14-6.53,3-2.85,4.26-2.85,4.26l-12,5.12s-3.88-1.61-3.88,2l-4.55,1.89s1.69-4.45-12.27-1.89l-17,11.27a2.39,2.39,0,0,0,0,2.75l-6,2.75S0,29.41.91,36.05s6.64,6.44,11,.85l1.8-3.13L33.79,25Z"/><polygon class="cls-1" points="52.59 16.82 52.05 19.73 50.41 17.81 52.59 16.82"/><polygon class="cls-1" points="29.34 24.49 33.98 21.27 33.98 22.5 29.34 24.49"/><path class="cls-1" d="M31.14,50.64s9.18-7.39,18.85-.76c0,0,13.07-5.4,3.41-9.67,0,0-12-4.54-27.57,0C25.83,40.21,15.69,44.38,31.14,50.64Z"/><path class="cls-2" d="M.87,53s7-4.92,11.13-2.36,8.89,11.9,17.81,4.84C37.9,49.08,40.5,49.13,48.19,53c9.23,4.66,13.3,7,18.57,0,3.14-4.2,13.48-1.24,14.82,1.43"/><path class="cls-2" d="M.87,61.17s7-4.92,11.13-2.37,8.89,11.91,17.81,4.85c8.09-6.41,10.69-6.36,18.38-2.48,9.23,4.66,13.3,7,18.57,0C69.9,57,80.24,59.94,81.58,62.61"/></g></g></svg>