<svg xmlns="http://www.w3.org/2000/svg" viewBox="0 0 91.91 38"><defs><style>.cls-1{fill:none;}.cls-1,.cls-2{stroke:#000;stroke-miterlimit:10;}.cls-2{fill:#ff0;}</style></defs><g id="Layer_2" data-name="Layer 2"><g id="Layer_1-2" data-name="Layer 1"><circle class="cls-1" cx="13" cy="31.5" r="6"/><circle class="cls-1" cx="13" cy="31.5" r="3"/><circle class="cls-1" cx="58" cy="31.5" r="3"/><circle class="cls-1" cx="58" cy="31.5" r="6"/><path class="cls-1" d="M7.16,32.86,3,32.5c-4,0-2-2-2-2-1-4,1-5,1-5s1,1,1-3,3-4,3-4l14-2,6-6c1.56-2.09,15-1,15-1l2,7h7.77"/><path class="cls-1" d="M74,16.5v11c2-2,1,4,1,4L64,32.68"/><line class="cls-1" x1="19" y1="32.86" x2="52" y2="32.5"/><line class="cls-1" x1="21" y1="28.5" x2="49" y2="28.5"/><polygon class="cls-1" points="24 18.5 30 11.5 37 11.5 39 18.5 24.5 18.5 24 18.5"/><line class="cls-1" x1="34" y1="22.5" x2="38" y2="22.5"/><path class="cls-2" d="M91,.5s-7,11-17,16H50.77a65.59,65.59,0,0,1,12.7-8.66s8.85,6,12.69-5.18A53.55,53.55,0,0,1,91,.5Z"/><path class="cls-1" d="M76.16,2.66A65.74,65.74,0,0,0,63.47,7.84"/></g></g></svg>